<!-- Home screen icon. The football is the subject: three quarters of
     the width, a dark outline so it separates from the sun behind it, and
     white laces and stripes that survive a 60px crop. Sun and grid stay as
     the app's backdrop. Everything that matters sits inside the middle
     80% so a maskable circle crop cannot cut the ball.
     Generated by a script; edit the palette or the sprite there. -->
<svg xmlns="http://www.w3.org/2000/svg" viewBox="0 0 1024 1024" width="1024" height="1024">
  <defs>
    <linearGradient id="sky" x1="0" y1="0" x2="0" y2="1">
      <stop offset="0%" stop-color="#12002b"/><stop offset="50%" stop-color="#2b0546"/><stop offset="78%" stop-color="#4a0b55"/><stop offset="100%" stop-color="#1a0332"/>
    </linearGradient>
    <linearGradient id="sun" x1="0" y1="0" x2="0" y2="1">
      <stop offset="0%" stop-color="#ffe45e"/><stop offset="40%" stop-color="#ff9d3d"/><stop offset="75%" stop-color="#ff2079"/><stop offset="100%" stop-color="#c13cff"/>
    </linearGradient>
    <mask id="slots">
      <rect width="1024" height="1024" fill="#fff"/>
      <rect x="0" y="560" width="1024" height="22" fill="#000"/>
      <rect x="0" y="612" width="1024" height="30" fill="#000"/>
      <rect x="0" y="672" width="1024" height="40" fill="#000"/>
    </mask>
  </defs>
  <rect width="1024" height="1024" fill="url(#sky)"/>
  <circle cx="512" cy="470" r="330" fill="url(#sun)" mask="url(#slots)"/>
  <g stroke="#05d9e8" fill="none">
    <line x1="0" y1="800" x2="1024" y2="800" stroke-width="7" opacity=".9"/>
    <g stroke-width="5" opacity=".38">
      <line x1="512" y1="800" x2="-200" y2="1024"/><line x1="512" y1="800" x2="150" y2="1024"/><line x1="512" y1="800" x2="512" y2="1024"/><line x1="512" y1="800" x2="874" y2="1024"/><line x1="512" y1="800" x2="1224" y2="1024"/>
      <line x1="0" y1="850" x2="1024" y2="850"/><line x1="0" y1="930" x2="1024" y2="930"/>
    </g>
  </g>
  <g transform="translate(512 500)"><g transform="translate(0 0)" shape-rendering="crispEdges"><g transform="translate(0 -208)"><rect x="-128" y="-32" width="32" height="32" fill="#12002b"/><rect x="-96" y="-32" width="32" height="32" fill="#12002b"/><rect x="-64" y="-32" width="32" height="32" fill="#12002b"/><rect x="-32" y="-32" width="32" height="32" fill="#12002b"/><rect x="0" y="-32" width="32" height="32" fill="#12002b"/><rect x="32" y="-32" width="32" height="32" fill="#12002b"/><rect x="64" y="-32" width="32" height="32" fill="#12002b"/><rect x="96" y="-32" width="32" height="32" fill="#12002b"/><rect x="-224" y="0" width="32" height="32" fill="#12002b"/><rect x="-192" y="0" width="32" height="32" fill="#12002b"/><rect x="-160" y="0" width="32" height="32" fill="#12002b"/><rect x="-128" y="0" width="32" height="32" fill="#12002b"/><rect x="96" y="0" width="32" height="32" fill="#12002b"/><rect x="128" y="0" width="32" height="32" fill="#12002b"/><rect x="160" y="0" width="32" height="32" fill="#12002b"/><rect x="192" y="0" width="32" height="32" fill="#12002b"/><rect x="-288" y="32" width="32" height="32" fill="#12002b"/><rect x="-256" y="32" width="32" height="32" fill="#12002b"/><rect x="-224" y="32" width="32" height="32" fill="#12002b"/><rect x="192" y="32" width="32" height="32" fill="#12002b"/><rect x="224" y="32" width="32" height="32" fill="#12002b"/><rect x="256" y="32" width="32" height="32" fill="#12002b"/><rect x="-352" y="64" width="32" height="32" fill="#12002b"/><rect x="-320" y="64" width="32" height="32" fill="#12002b"/><rect x="-288" y="64" width="32" height="32" fill="#12002b"/><rect x="256" y="64" width="32" height="32" fill="#12002b"/><rect x="288" y="64" width="32" height="32" fill="#12002b"/><rect x="320" y="64" width="32" height="32" fill="#12002b"/><rect x="-384" y="96" width="32" height="32" fill="#12002b"/><rect x="-352" y="96" width="32" height="32" fill="#12002b"/><rect x="320" y="96" width="32" height="32" fill="#12002b"/><rect x="352" y="96" width="32" height="32" fill="#12002b"/><rect x="-416" y="128" width="32" height="32" fill="#12002b"/><rect x="-384" y="128" width="32" height="32" fill="#12002b"/><rect x="352" y="128" width="32" height="32" fill="#12002b"/><rect x="384" y="128" width="32" height="32" fill="#12002b"/><rect x="-416" y="160" width="32" height="32" fill="#12002b"/><rect x="384" y="160" width="32" height="32" fill="#12002b"/><rect x="-416" y="192" width="32" height="32" fill="#12002b"/><rect x="384" y="192" width="32" height="32" fill="#12002b"/><rect x="-416" y="224" width="32" height="32" fill="#12002b"/><rect x="384" y="224" width="32" height="32" fill="#12002b"/><rect x="-416" y="256" width="32" height="32" fill="#12002b"/><rect x="-384" y="256" width="32" height="32" fill="#12002b"/><rect x="352" y="256" width="32" height="32" fill="#12002b"/><rect x="384" y="256" width="32" height="32" fill="#12002b"/><rect x="-384" y="288" width="32" height="32" fill="#12002b"/><rect x="-352" y="288" width="32" height="32" fill="#12002b"/><rect x="320" y="288" width="32" height="32" fill="#12002b"/><rect x="352" y="288" width="32" height="32" fill="#12002b"/><rect x="-352" y="320" width="32" height="32" fill="#12002b"/><rect x="-320" y="320" width="32" height="32" fill="#12002b"/><rect x="-288" y="320" width="32" height="32" fill="#12002b"/><rect x="256" y="320" width="32" height="32" fill="#12002b"/><rect x="288" y="320" width="32" height="32" fill="#12002b"/><rect x="320" y="320" width="32" height="32" fill="#12002b"/><rect x="-288" y="352" width="32" height="32" fill="#12002b"/><rect x="-256" y="352" width="32" height="32" fill="#12002b"/><rect x="-224" y="352" width="32" height="32" fill="#12002b"/><rect x="192" y="352" width="32" height="32" fill="#12002b"/><rect x="224" y="352" width="32" height="32" fill="#12002b"/><rect x="256" y="352" width="32" height="32" fill="#12002b"/><rect x="-224" y="384" width="32" height="32" fill="#12002b"/><rect x="-192" y="384" width="32" height="32" fill="#12002b"/><rect x="-160" y="384" width="32" height="32" fill="#12002b"/><rect x="-128" y="384" width="32" height="32" fill="#12002b"/><rect x="96" y="384" width="32" height="32" fill="#12002b"/><rect x="128" y="384" width="32" height="32" fill="#12002b"/><rect x="160" y="384" width="32" height="32" fill="#12002b"/><rect x="192" y="384" width="32" height="32" fill="#12002b"/><rect x="-128" y="416" width="32" height="32" fill="#12002b"/><rect x="-96" y="416" width="32" height="32" fill="#12002b"/><rect x="-64" y="416" width="32" height="32" fill="#12002b"/><rect x="-32" y="416" width="32" height="32" fill="#12002b"/><rect x="0" y="416" width="32" height="32" fill="#12002b"/><rect x="32" y="416" width="32" height="32" fill="#12002b"/><rect x="64" y="416" width="32" height="32" fill="#12002b"/><rect x="96" y="416" width="32" height="32" fill="#12002b"/><rect x="-96" y="0" width="32" height="32" fill="#e0703a"/><rect x="-64" y="0" width="32" height="32" fill="#e0703a"/><rect x="-32" y="0" width="32" height="32" fill="#e0703a"/><rect x="0" y="0" width="32" height="32" fill="#e0703a"/><rect x="32" y="0" width="32" height="32" fill="#e0703a"/><rect x="64" y="0" width="32" height="32" fill="#e0703a"/><rect x="-192" y="32" width="32" height="32" fill="#e0703a"/><rect x="-160" y="32" width="32" height="32" fill="#e0703a"/><rect x="-128" y="32" width="32" height="32" fill="#e0703a"/><rect x="-96" y="32" width="32" height="32" fill="#e0703a"/><rect x="-64" y="32" width="32" height="32" fill="#e0703a"/><rect x="-32" y="32" width="32" height="32" fill="#e0703a"/><rect x="0" y="32" width="32" height="32" fill="#e0703a"/><rect x="32" y="32" width="32" height="32" fill="#e0703a"/><rect x="64" y="32" width="32" height="32" fill="#e0703a"/><rect x="96" y="32" width="32" height="32" fill="#e0703a"/><rect x="128" y="32" width="32" height="32" fill="#e0703a"/><rect x="160" y="32" width="32" height="32" fill="#e0703a"/><rect x="-256" y="64" width="32" height="32" fill="#e0703a"/><rect x="-224" y="64" width="32" height="32" fill="#e0703a"/><rect x="-192" y="64" width="32" height="32" fill="#e0703a"/><rect x="-160" y="64" width="32" height="32" fill="#e0703a"/><rect x="-128" y="64" width="32" height="32" fill="#e0703a"/><rect x="-96" y="64" width="32" height="32" fill="#e0703a"/><rect x="-64" y="64" width="32" height="32" fill="#e0703a"/><rect x="-32" y="64" width="32" height="32" fill="#e0703a"/><rect x="0" y="64" width="32" height="32" fill="#e0703a"/><rect x="32" y="64" width="32" height="32" fill="#e0703a"/><rect x="64" y="64" width="32" height="32" fill="#e0703a"/><rect x="96" y="64" width="32" height="32" fill="#e0703a"/><rect x="128" y="64" width="32" height="32" fill="#e0703a"/><rect x="160" y="64" width="32" height="32" fill="#e0703a"/><rect x="192" y="64" width="32" height="32" fill="#e0703a"/><rect x="224" y="64" width="32" height="32" fill="#e0703a"/><rect x="-320" y="96" width="32" height="32" fill="#c9581f"/><rect x="-288" y="96" width="32" height="32" fill="#fff6e6"/><rect x="-256" y="96" width="32" height="32" fill="#fff6e6"/><rect x="-224" y="96" width="32" height="32" fill="#c9581f"/><rect x="-192" y="96" width="32" height="32" fill="#c9581f"/><rect x="-160" y="96" width="32" height="32" fill="#c9581f"/><rect x="-128" y="96" width="32" height="32" fill="#c9581f"/><rect x="-96" y="96" width="32" height="32" fill="#c9581f"/><rect x="-64" y="96" width="32" height="32" fill="#c9581f"/><rect x="-32" y="96" width="32" height="32" fill="#c9581f"/><rect x="0" y="96" width="32" height="32" fill="#c9581f"/><rect x="32" y="96" width="32" height="32" fill="#c9581f"/><rect x="64" y="96" width="32" height="32" fill="#c9581f"/><rect x="96" y="96" width="32" height="32" fill="#c9581f"/><rect x="128" y="96" width="32" height="32" fill="#c9581f"/><rect x="160" y="96" width="32" height="32" fill="#c9581f"/><rect x="192" y="96" width="32" height="32" fill="#c9581f"/><rect x="224" y="96" width="32" height="32" fill="#fff6e6"/><rect x="256" y="96" width="32" height="32" fill="#fff6e6"/><rect x="288" y="96" width="32" height="32" fill="#c9581f"/><rect x="-352" y="128" width="32" height="32" fill="#c9581f"/><rect x="-320" y="128" width="32" height="32" fill="#c9581f"/><rect x="-288" y="128" width="32" height="32" fill="#fff6e6"/><rect x="-256" y="128" width="32" height="32" fill="#fff6e6"/><rect x="-224" y="128" width="32" height="32" fill="#c9581f"/><rect x="-192" y="128" width="32" height="32" fill="#c9581f"/><rect x="-160" y="128" width="32" height="32" fill="#c9581f"/><rect x="-128" y="128" width="32" height="32" fill="#c9581f"/><rect x="-96" y="128" width="32" height="32" fill="#c9581f"/><rect x="-64" y="128" width="32" height="32" fill="#c9581f"/><rect x="-32" y="128" width="32" height="32" fill="#c9581f"/><rect x="0" y="128" width="32" height="32" fill="#c9581f"/><rect x="32" y="128" width="32" height="32" fill="#c9581f"/><rect x="64" y="128" width="32" height="32" fill="#c9581f"/><rect x="96" y="128" width="32" height="32" fill="#c9581f"/><rect x="128" y="128" width="32" height="32" fill="#c9581f"/><rect x="160" y="128" width="32" height="32" fill="#c9581f"/><rect x="192" y="128" width="32" height="32" fill="#c9581f"/><rect x="224" y="128" width="32" height="32" fill="#fff6e6"/><rect x="256" y="128" width="32" height="32" fill="#fff6e6"/><rect x="288" y="128" width="32" height="32" fill="#c9581f"/><rect x="320" y="128" width="32" height="32" fill="#c9581f"/><rect x="-384" y="160" width="32" height="32" fill="#c9581f"/><rect x="-352" y="160" width="32" height="32" fill="#c9581f"/><rect x="-320" y="160" width="32" height="32" fill="#c9581f"/><rect x="-288" y="160" width="32" height="32" fill="#fff6e6"/><rect x="-256" y="160" width="32" height="32" fill="#fff6e6"/><rect x="-224" y="160" width="32" height="32" fill="#c9581f"/><rect x="-192" y="160" width="32" height="32" fill="#c9581f"/><rect x="-160" y="160" width="32" height="32" fill="#c9581f"/><rect x="-128" y="160" width="32" height="32" fill="#c9581f"/><rect x="-96" y="160" width="32" height="32" fill="#fff6e6"/><rect x="-64" y="160" width="32" height="32" fill="#c9581f"/><rect x="-32" y="160" width="32" height="32" fill="#fff6e6"/><rect x="0" y="160" width="32" height="32" fill="#fff6e6"/><rect x="32" y="160" width="32" height="32" fill="#c9581f"/><rect x="64" y="160" width="32" height="32" fill="#fff6e6"/><rect x="96" y="160" width="32" height="32" fill="#c9581f"/><rect x="128" y="160" width="32" height="32" fill="#c9581f"/><rect x="160" y="160" width="32" height="32" fill="#c9581f"/><rect x="192" y="160" width="32" height="32" fill="#c9581f"/><rect x="224" y="160" width="32" height="32" fill="#fff6e6"/><rect x="256" y="160" width="32" height="32" fill="#fff6e6"/><rect x="288" y="160" width="32" height="32" fill="#c9581f"/><rect x="320" y="160" width="32" height="32" fill="#c9581f"/><rect x="352" y="160" width="32" height="32" fill="#c9581f"/><rect x="-384" y="192" width="32" height="32" fill="#c9581f"/><rect x="-352" y="192" width="32" height="32" fill="#c9581f"/><rect x="-320" y="192" width="32" height="32" fill="#c9581f"/><rect x="-288" y="192" width="32" height="32" fill="#fff6e6"/><rect x="-256" y="192" width="32" height="32" fill="#fff6e6"/><rect x="-224" y="192" width="32" height="32" fill="#c9581f"/><rect x="-192" y="192" width="32" height="32" fill="#c9581f"/><rect x="-160" y="192" width="32" height="32" fill="#c9581f"/><rect x="-128" y="192" width="32" height="32" fill="#fff6e6"/><rect x="-96" y="192" width="32" height="32" fill="#fff6e6"/><rect x="-64" y="192" width="32" height="32" fill="#fff6e6"/><rect x="-32" y="192" width="32" height="32" fill="#fff6e6"/><rect x="0" y="192" width="32" height="32" fill="#fff6e6"/><rect x="32" y="192" width="32" height="32" fill="#fff6e6"/><rect x="64" y="192" width="32" height="32" fill="#fff6e6"/><rect x="96" y="192" width="32" height="32" fill="#fff6e6"/><rect x="128" y="192" width="32" height="32" fill="#c9581f"/><rect x="160" y="192" width="32" height="32" fill="#c9581f"/><rect x="192" y="192" width="32" height="32" fill="#c9581f"/><rect x="224" y="192" width="32" height="32" fill="#fff6e6"/><rect x="256" y="192" width="32" height="32" fill="#fff6e6"/><rect x="288" y="192" width="32" height="32" fill="#c9581f"/><rect x="320" y="192" width="32" height="32" fill="#c9581f"/><rect x="352" y="192" width="32" height="32" fill="#c9581f"/><rect x="-384" y="224" width="32" height="32" fill="#c9581f"/><rect x="-352" y="224" width="32" height="32" fill="#c9581f"/><rect x="-320" y="224" width="32" height="32" fill="#c9581f"/><rect x="-288" y="224" width="32" height="32" fill="#fff6e6"/><rect x="-256" y="224" width="32" height="32" fill="#fff6e6"/><rect x="-224" y="224" width="32" height="32" fill="#c9581f"/><rect x="-192" y="224" width="32" height="32" fill="#c9581f"/><rect x="-160" y="224" width="32" height="32" fill="#c9581f"/><rect x="-128" y="224" width="32" height="32" fill="#c9581f"/><rect x="-96" y="224" width="32" height="32" fill="#fff6e6"/><rect x="-64" y="224" width="32" height="32" fill="#c9581f"/><rect x="-32" y="224" width="32" height="32" fill="#fff6e6"/><rect x="0" y="224" width="32" height="32" fill="#fff6e6"/><rect x="32" y="224" width="32" height="32" fill="#c9581f"/><rect x="64" y="224" width="32" height="32" fill="#fff6e6"/><rect x="96" y="224" width="32" height="32" fill="#c9581f"/><rect x="128" y="224" width="32" height="32" fill="#c9581f"/><rect x="160" y="224" width="32" height="32" fill="#c9581f"/><rect x="192" y="224" width="32" height="32" fill="#c9581f"/><rect x="224" y="224" width="32" height="32" fill="#fff6e6"/><rect x="256" y="224" width="32" height="32" fill="#fff6e6"/><rect x="288" y="224" width="32" height="32" fill="#c9581f"/><rect x="320" y="224" width="32" height="32" fill="#c9581f"/><rect x="352" y="224" width="32" height="32" fill="#c9581f"/><rect x="-352" y="256" width="32" height="32" fill="#c9581f"/><rect x="-320" y="256" width="32" height="32" fill="#c9581f"/><rect x="-288" y="256" width="32" height="32" fill="#fff6e6"/><rect x="-256" y="256" width="32" height="32" fill="#fff6e6"/><rect x="-224" y="256" width="32" height="32" fill="#c9581f"/><rect x="-192" y="256" width="32" height="32" fill="#c9581f"/><rect x="-160" y="256" width="32" height="32" fill="#c9581f"/><rect x="-128" y="256" width="32" height="32" fill="#c9581f"/><rect x="-96" y="256" width="32" height="32" fill="#c9581f"/><rect x="-64" y="256" width="32" height="32" fill="#c9581f"/><rect x="-32" y="256" width="32" height="32" fill="#c9581f"/><rect x="0" y="256" width="32" height="32" fill="#c9581f"/><rect x="32" y="256" width="32" height="32" fill="#c9581f"/><rect x="64" y="256" width="32" height="32" fill="#c9581f"/><rect x="96" y="256" width="32" height="32" fill="#c9581f"/><rect x="128" y="256" width="32" height="32" fill="#c9581f"/><rect x="160" y="256" width="32" height="32" fill="#c9581f"/><rect x="192" y="256" width="32" height="32" fill="#c9581f"/><rect x="224" y="256" width="32" height="32" fill="#fff6e6"/><rect x="256" y="256" width="32" height="32" fill="#fff6e6"/><rect x="288" y="256" width="32" height="32" fill="#c9581f"/><rect x="320" y="256" width="32" height="32" fill="#c9581f"/><rect x="-320" y="288" width="32" height="32" fill="#c9581f"/><rect x="-288" y="288" width="32" height="32" fill="#fff6e6"/><rect x="-256" y="288" width="32" height="32" fill="#fff6e6"/><rect x="-224" y="288" width="32" height="32" fill="#c9581f"/><rect x="-192" y="288" width="32" height="32" fill="#c9581f"/><rect x="-160" y="288" width="32" height="32" fill="#c9581f"/><rect x="-128" y="288" width="32" height="32" fill="#c9581f"/><rect x="-96" y="288" width="32" height="32" fill="#c9581f"/><rect x="-64" y="288" width="32" height="32" fill="#c9581f"/><rect x="-32" y="288" width="32" height="32" fill="#c9581f"/><rect x="0" y="288" width="32" height="32" fill="#c9581f"/><rect x="32" y="288" width="32" height="32" fill="#c9581f"/><rect x="64" y="288" width="32" height="32" fill="#c9581f"/><rect x="96" y="288" width="32" height="32" fill="#c9581f"/><rect x="128" y="288" width="32" height="32" fill="#c9581f"/><rect x="160" y="288" width="32" height="32" fill="#c9581f"/><rect x="192" y="288" width="32" height="32" fill="#c9581f"/><rect x="224" y="288" width="32" height="32" fill="#fff6e6"/><rect x="256" y="288" width="32" height="32" fill="#fff6e6"/><rect x="288" y="288" width="32" height="32" fill="#c9581f"/><rect x="-256" y="320" width="32" height="32" fill="#8e3a12"/><rect x="-224" y="320" width="32" height="32" fill="#8e3a12"/><rect x="-192" y="320" width="32" height="32" fill="#8e3a12"/><rect x="-160" y="320" width="32" height="32" fill="#8e3a12"/><rect x="-128" y="320" width="32" height="32" fill="#8e3a12"/><rect x="-96" y="320" width="32" height="32" fill="#8e3a12"/><rect x="-64" y="320" width="32" height="32" fill="#8e3a12"/><rect x="-32" y="320" width="32" height="32" fill="#8e3a12"/><rect x="0" y="320" width="32" height="32" fill="#8e3a12"/><rect x="32" y="320" width="32" height="32" fill="#8e3a12"/><rect x="64" y="320" width="32" height="32" fill="#8e3a12"/><rect x="96" y="320" width="32" height="32" fill="#8e3a12"/><rect x="128" y="320" width="32" height="32" fill="#8e3a12"/><rect x="160" y="320" width="32" height="32" fill="#8e3a12"/><rect x="192" y="320" width="32" height="32" fill="#8e3a12"/><rect x="224" y="320" width="32" height="32" fill="#8e3a12"/><rect x="-192" y="352" width="32" height="32" fill="#8e3a12"/><rect x="-160" y="352" width="32" height="32" fill="#8e3a12"/><rect x="-128" y="352" width="32" height="32" fill="#8e3a12"/><rect x="-96" y="352" width="32" height="32" fill="#8e3a12"/><rect x="-64" y="352" width="32" height="32" fill="#8e3a12"/><rect x="-32" y="352" width="32" height="32" fill="#8e3a12"/><rect x="0" y="352" width="32" height="32" fill="#8e3a12"/><rect x="32" y="352" width="32" height="32" fill="#8e3a12"/><rect x="64" y="352" width="32" height="32" fill="#8e3a12"/><rect x="96" y="352" width="32" height="32" fill="#8e3a12"/><rect x="128" y="352" width="32" height="32" fill="#8e3a12"/><rect x="160" y="352" width="32" height="32" fill="#8e3a12"/><rect x="-96" y="384" width="32" height="32" fill="#8e3a12"/><rect x="-64" y="384" width="32" height="32" fill="#8e3a12"/><rect x="-32" y="384" width="32" height="32" fill="#8e3a12"/><rect x="0" y="384" width="32" height="32" fill="#8e3a12"/><rect x="32" y="384" width="32" height="32" fill="#8e3a12"/><rect x="64" y="384" width="32" height="32" fill="#8e3a12"/></g></g></g>
</svg>